<svg width="21" height="21" viewBox="0 0 21 21" fill="none" xmlns="http://www.w3.org/2000/svg">
<path d="M16.783 15.8843C17.3419 15.8843 17.878 16.1063 18.2732 16.5015C18.6685 16.8968 18.8905 17.4328 18.8905 17.9918C18.8905 18.5507 18.6685 19.0867 18.2732 19.482C17.878 19.8772 17.3419 20.0992 16.783 20.0992C16.2241 20.0992 15.688 19.8772 15.2928 19.482C14.8975 19.0867 14.6755 18.5507 14.6755 17.9918C14.6755 17.4328 14.8975 16.8968 15.2928 16.5015C15.688 16.1063 16.2241 15.8843 16.783 15.8843ZM16.783 16.938C16.5035 16.938 16.2355 17.049 16.0379 17.2466C15.8403 17.4443 15.7293 17.7123 15.7293 17.9918C15.7293 18.2712 15.8403 18.5392 16.0379 18.7369C16.2355 18.9345 16.5035 19.0455 16.783 19.0455C17.0625 19.0455 17.3305 18.9345 17.5281 18.7369C17.7257 18.5392 17.8367 18.2712 17.8367 17.9918C17.8367 17.7123 17.7257 17.4443 17.5281 17.2466C17.3305 17.049 17.0625 16.938 16.783 16.938ZM7.29928 15.8843C7.85823 15.8843 8.39427 16.1063 8.78951 16.5015C9.18474 16.8968 9.40678 17.4328 9.40678 17.9918C9.40678 18.5507 9.18474 19.0867 8.78951 19.482C8.39427 19.8772 7.85823 20.0992 7.29928 20.0992C6.74034 20.0992 6.20429 19.8772 5.80906 19.482C5.41383 19.0867 5.19179 18.5507 5.19179 17.9918C5.19179 17.4328 5.41383 16.8968 5.80906 16.5015C6.20429 16.1063 6.74034 15.8843 7.29928 15.8843ZM7.29928 16.938C7.01981 16.938 6.75179 17.049 6.55417 17.2466C6.35656 17.4443 6.24554 17.7123 6.24554 17.9918C6.24554 18.2712 6.35656 18.5392 6.55417 18.7369C6.75179 18.9345 7.01981 19.0455 7.29928 19.0455C7.57876 19.0455 7.84678 18.9345 8.0444 18.7369C8.24201 18.5392 8.35303 18.2712 8.35303 17.9918C8.35303 17.7123 8.24201 17.4443 8.0444 17.2466C7.84678 17.049 7.57876 16.938 7.29928 16.938ZM18.8905 3.2393H4.42256L7.10961 9.56178H15.7293C16.077 9.56178 16.3826 9.39318 16.5723 9.14028L19.7335 4.9253C19.8705 4.74616 19.9442 4.52487 19.9442 4.29305C19.9442 4.01358 19.8332 3.74555 19.6356 3.54794C19.438 3.35032 19.17 3.2393 18.8905 3.2393ZM15.7293 10.6155H7.1623L6.35091 12.2594L6.24554 12.723C6.24554 13.0025 6.35656 13.2705 6.55417 13.4681C6.75179 13.6657 7.01981 13.7768 7.29928 13.7768H18.8905V14.8305H7.29928C6.74034 14.8305 6.20429 14.6085 5.80906 14.2132C5.41383 13.818 5.19179 13.282 5.19179 12.723C5.19148 12.3655 5.28213 12.0137 5.45523 11.7009L6.21393 10.1519L2.38883 1.13181H0.976807V0.078064H3.0843L3.97998 2.18556H18.8905C19.4494 2.18556 19.9855 2.4076 20.3807 2.80283C20.7759 3.19806 20.998 3.73411 20.998 4.29305C20.998 4.81992 20.8188 5.2625 20.5238 5.62077L17.4574 9.71984C17.078 10.2573 16.4458 10.6155 15.7293 10.6155Z" fill="black"/>
</svg>
