<svg width="18" height="22" viewBox="0 0 18 22" fill="none" xmlns="http://www.w3.org/2000/svg">
<path fill-rule="evenodd" clip-rule="evenodd" d="M4.6111 5.81994V4.76619C4.6111 3.64831 5.05518 2.57621 5.84564 1.78575C6.63611 0.995286 7.7082 0.551208 8.82609 0.551208C9.94397 0.551208 11.0161 0.995286 11.8065 1.78575C12.597 2.57621 13.0411 3.64831 13.0411 4.76619V5.81994H16.2023C16.784 5.81994 17.2561 6.29307 17.2561 6.88106V19.5271C17.2561 20.6862 16.313 21.6261 15.1549 21.6261H2.49729C1.94039 21.6261 1.40627 21.4051 1.01228 21.0115C0.618296 20.6179 0.396677 20.084 0.396118 19.5271V6.88212C0.396118 6.29413 0.865035 5.81994 1.44986 5.81994H4.6111ZM5.8756 5.81994H11.7766V4.76619C11.7766 3.98368 11.4657 3.23321 10.9124 2.67988C10.3591 2.12656 9.60861 1.8157 8.82609 1.8157C8.04357 1.8157 7.2931 2.12656 6.73978 2.67988C6.18645 3.23321 5.8756 3.98368 5.8756 4.76619V5.81994ZM4.6111 7.08444H1.66061V19.5271C1.66061 19.9865 2.03575 20.3616 2.49729 20.3616H15.1549C15.3764 20.3616 15.5889 20.2738 15.7458 20.1173C15.9026 19.9609 15.991 19.7486 15.9916 19.5271V7.08444H13.0411V10.0349H11.7766V7.08444H5.8756V10.0349H4.6111V7.08444Z" fill="black"/>
</svg>
