<svg width="18" height="22" viewBox="0 0 18 22" fill="none" xmlns="http://www.w3.org/2000/svg">
<path d="M1.00363 7.67344L0.466315 7.42594L0.465974 7.42668L1.00363 7.67344ZM3.15815 5.39942L2.77319 4.95023L2.77308 4.95032L3.15815 5.39942ZM4.3413 4.38546L3.95653 3.93611L3.95635 3.93627L4.3413 4.38546ZM13.5817 4.38428L13.9667 3.93508L13.9666 3.93503L13.5817 4.38428ZM14.7649 5.39824L15.1502 4.94933L15.1498 4.94905L14.7649 5.39824ZM16.9182 7.67226L16.3806 7.91902L16.3809 7.91976L16.9182 7.67226ZM11.3278 20.5391C11.3278 20.8658 11.5927 21.1306 11.9194 21.1306C12.2461 21.1306 12.511 20.8658 12.511 20.5391H11.9194H11.3278ZM5.41207 20.5391C5.41207 20.8658 5.67692 21.1306 6.00364 21.1306C6.33036 21.1306 6.59522 20.8658 6.59522 20.5391H6.00364H5.41207ZM0.679443 10.7899H1.27102C1.27102 9.12911 1.28363 8.48159 1.54128 7.92021L1.00363 7.67344L0.465974 7.42668C0.07526 8.27798 0.0878664 9.23718 0.0878664 10.7899H0.679443ZM1.00363 7.67344L1.54094 7.92095C1.79954 7.35954 2.28219 6.92975 3.54321 5.84852L3.15815 5.39942L2.77308 4.95032C1.59445 5.96091 0.858446 6.57466 0.466316 7.42594L1.00363 7.67344ZM3.15815 5.39942L3.54311 5.84861L4.72626 4.83465L4.3413 4.38546L3.95635 3.93627L2.77319 4.95023L3.15815 5.39942ZM4.3413 4.38546L4.72608 4.8348C5.84126 3.87988 6.63554 3.20008 7.31268 2.75235C7.97589 2.31381 8.46506 2.14102 8.96152 2.14102V1.54944V0.957862C8.14468 0.957862 7.42703 1.25833 6.66011 1.76543C5.9071 2.26333 5.04793 3.00154 3.95653 3.93611L4.3413 4.38546ZM8.96152 1.54944V2.14102C9.4582 2.14102 9.94774 2.31369 10.611 2.75188C11.2881 3.19924 12.0824 3.87873 13.1968 4.83352L13.5817 4.38428L13.9666 3.93503C12.8756 3.00032 12.0165 2.2624 11.2632 1.76471C10.496 1.25786 9.77814 0.957862 8.96152 0.957862V1.54944ZM13.5817 4.38428L13.1968 4.83347L14.3799 5.84743L14.7649 5.39824L15.1498 4.94905L13.9667 3.93508L13.5817 4.38428ZM14.7649 5.39824L14.3796 5.84715C15.6402 6.92903 16.1232 7.3582 16.3806 7.91902L16.9182 7.67226L17.4559 7.4255C17.0649 6.57363 16.3269 5.95926 15.1502 4.94933L14.7649 5.39824ZM16.9182 7.67226L16.3809 7.91976C16.6393 8.48077 16.652 9.12779 16.652 10.7887H17.2436H17.8352C17.8352 9.23614 17.8479 8.27643 17.4555 7.42475L16.9182 7.67226ZM17.2436 10.7887H16.652V15.8064H17.2436H17.8352V10.7887H17.2436ZM17.2436 15.8064H16.652C16.652 16.9389 16.6508 17.7284 16.5706 18.324C16.4928 18.9025 16.3505 19.2089 16.132 19.4274L16.5503 19.8457L16.9686 20.264C17.4434 19.7892 17.6477 19.1917 17.7432 18.4817C17.8364 17.7889 17.8352 16.9054 17.8352 15.8064H17.2436ZM16.5503 19.8457L16.132 19.4274C15.9134 19.6459 15.607 19.7883 15.0285 19.8661C14.4329 19.9462 13.6434 19.9475 12.511 19.9475V20.5391V21.1306C13.61 21.1306 14.4934 21.1319 15.1863 21.0387C15.8962 20.9432 16.4938 20.7388 16.9686 20.264L16.5503 19.8457ZM12.511 20.5391V19.9475H5.41206V20.5391V21.1306H12.511V20.5391ZM5.41206 20.5391V19.9475C4.2796 19.9475 3.49012 19.9462 2.8945 19.8661C2.31601 19.7883 2.00959 19.6459 1.79108 19.4274L1.37277 19.8457L0.954463 20.264C1.42928 20.7388 2.02679 20.9432 2.73675 21.0387C3.42959 21.1319 4.31308 21.1306 5.41206 21.1306V20.5391ZM1.37277 19.8457L1.79108 19.4274C1.57256 19.2089 1.43023 18.9025 1.3524 18.324C1.27228 17.7284 1.27102 16.9389 1.27102 15.8064H0.679443H0.0878664C0.0878664 16.9054 0.0866084 17.7889 0.179814 18.4817C0.275324 19.1917 0.47965 19.7892 0.954463 20.264L1.37277 19.8457ZM0.679443 15.8064H1.27102V10.7899H0.679443H0.0878664V15.8064H0.679443ZM11.9194 20.5391H12.511V14.6233H11.9194H11.3278V20.5391H11.9194ZM11.9194 14.6233H12.511C12.511 14.1526 12.324 13.7012 11.9912 13.3684L11.5729 13.7867L11.1546 14.205C11.2655 14.3159 11.3278 14.4664 11.3278 14.6233H11.9194ZM11.5729 13.7867L11.9912 13.3684C11.6584 13.0355 11.2069 12.8486 10.7363 12.8486V13.4401V14.0317C10.8932 14.0317 11.0436 14.094 11.1546 14.205L11.5729 13.7867ZM10.7363 13.4401V12.8486H7.1868V13.4401V14.0317H10.7363V13.4401ZM7.1868 13.4401V12.8486C6.71611 12.8486 6.2647 13.0355 5.93187 13.3684L6.35018 13.7867L6.76849 14.205C6.87943 14.094 7.0299 14.0317 7.1868 14.0317V13.4401ZM6.35018 13.7867L5.93187 13.3684C5.59905 13.7012 5.41207 14.1526 5.41207 14.6233H6.00364H6.59522C6.59522 14.4664 6.65755 14.3159 6.76849 14.205L6.35018 13.7867ZM6.00364 14.6233H5.41207V20.5391H6.00364H6.59522V14.6233H6.00364Z" fill="black"/>
</svg>
