<svg width="21" height="21" viewBox="0 0 21 21" fill="none" xmlns="http://www.w3.org/2000/svg">
<path fill-rule="evenodd" clip-rule="evenodd" d="M17.6429 0.710938C18.2743 0.710938 18.8799 0.961787 19.3264 1.4083C19.773 1.85482 20.0238 2.46042 20.0238 3.09189V14.9967C20.0238 15.6281 19.773 16.2337 19.3264 16.6802C18.8799 17.1268 18.2743 17.3776 17.6429 17.3776L14.0726 17.3764L11.3417 20.1074C11.1367 20.3123 10.8639 20.4355 10.5746 20.4537C10.2853 20.4719 9.9993 20.3839 9.77024 20.2062L9.65834 20.1074L6.92739 17.3764L3.35715 17.3776C2.72568 17.3776 2.12008 17.1268 1.67356 16.6802C1.22705 16.2337 0.976196 15.6281 0.976196 14.9967V3.09189C0.976196 2.46042 1.22705 1.85482 1.67356 1.4083C2.12008 0.961787 2.72568 0.710938 3.35715 0.710938H17.6429Z" stroke="black" stroke-linecap="round" stroke-linejoin="round"/>
<path fill-rule="evenodd" clip-rule="evenodd" d="M10.4988 10.2348C11.094 10.2348 11.6893 9.63954 11.6893 9.0443C11.6893 8.44906 11.094 7.85382 10.4988 7.85382C9.90356 7.85382 9.30951 8.44906 9.30951 9.0443C9.30951 9.63954 9.90356 10.2348 10.4988 10.2348ZM5.73689 10.2348C6.33213 10.2348 6.92737 9.63954 6.92737 9.0443C6.92737 8.44906 6.33213 7.85382 5.73689 7.85382C5.14166 7.85382 4.54761 8.44906 4.54761 9.0443C4.54761 9.63954 5.14166 10.2348 5.73689 10.2348ZM15.2607 10.2348C15.8559 10.2348 16.4512 9.63954 16.4512 9.0443C16.4512 8.44906 15.8559 7.85382 15.2607 7.85382C14.6655 7.85382 14.0714 8.44906 14.0714 9.0443C14.0714 9.63954 14.6655 10.2348 15.2607 10.2348Z" fill="black"/>
</svg>
