<svg width="20" height="20" viewBox="0 0 20 20" fill="none" xmlns="http://www.w3.org/2000/svg">
<path d="M8.92856 10.0443C8.92856 10.3167 9.03678 10.5779 9.2294 10.7706C9.42201 10.9632 9.68326 11.0714 9.95567 11.0714C10.2281 11.0714 10.4893 10.9632 10.6819 10.7706C10.8746 10.5779 10.9828 10.3167 10.9828 10.0443C10.9828 9.77188 10.8746 9.51064 10.6819 9.31802C10.4893 9.1254 10.2281 9.01719 9.95567 9.01719C9.68326 9.01719 9.42201 9.1254 9.2294 9.31802C9.03678 9.51064 8.92856 9.77188 8.92856 10.0443ZM13.2082 10.0443C13.2082 10.3167 13.3164 10.5779 13.509 10.7706C13.7016 10.9632 13.9629 11.0714 14.2353 11.0714C14.5077 11.0714 14.7689 10.9632 14.9615 10.7706C15.1541 10.5779 15.2624 10.3167 15.2624 10.0443C15.2624 9.77188 15.1541 9.51064 14.9615 9.31802C14.7689 9.1254 14.5077 9.01719 14.2353 9.01719C13.9629 9.01719 13.7016 9.1254 13.509 9.31802C13.3164 9.51064 13.2082 9.77188 13.2082 10.0443ZM4.64897 10.0443C4.64897 10.3167 4.75719 10.5779 4.94981 10.7706C5.14242 10.9632 5.40367 11.0714 5.67608 11.0714C5.94848 11.0714 6.20973 10.9632 6.40235 10.7706C6.59497 10.5779 6.70318 10.3167 6.70318 10.0443C6.70318 9.77188 6.59497 9.51064 6.40235 9.31802C6.20973 9.1254 5.94848 9.01719 5.67608 9.01719C5.40367 9.01719 5.14242 9.1254 4.94981 9.31802C4.75719 9.51064 4.64897 9.77188 4.64897 10.0443ZM18.7973 6.3296C18.3137 5.18053 17.6204 4.14915 16.7367 3.26328C15.8591 2.38255 14.8173 1.68247 13.6703 1.20266C12.4935 0.708364 11.2438 0.458008 9.95567 0.458008H9.91287C8.61615 0.464427 7.36009 0.721203 6.17893 1.22619C5.04176 1.71093 4.00976 2.41225 3.14042 3.2911C2.26524 4.17483 1.57837 5.20193 1.10333 6.34672C0.611181 7.53217 0.362965 8.79251 0.369384 10.0892C0.376645 11.5752 0.72821 13.0394 1.39649 14.3667V17.6192C1.39649 17.8802 1.50019 18.1306 1.68478 18.3152C1.86938 18.4998 2.11974 18.6035 2.38079 18.6035H5.63542C6.96272 19.2717 8.42684 19.6233 9.91287 19.6306H9.95781C11.2395 19.6306 12.4828 19.3824 13.6532 18.8966C14.7944 18.4225 15.8323 17.7306 16.7089 16.8595C17.5926 15.9844 18.288 14.9615 18.7738 13.821C19.2788 12.6399 19.5355 11.3838 19.5419 10.0871C19.5484 8.78395 19.2959 7.51933 18.7973 6.3296ZM15.5641 15.7019C14.0641 17.1869 12.0741 18.0043 9.95567 18.0043H9.91929C8.62899 17.9979 7.34726 17.6769 6.2153 17.0735L6.03556 16.9772H3.02273V13.9644L2.92644 13.7846C2.32302 12.6527 2.00205 11.371 1.99563 10.0807C1.98707 7.94729 2.80233 5.94444 4.29805 4.43589C5.79162 2.92733 7.78805 2.09281 9.92143 2.08425H9.95781C11.0277 2.08425 12.0655 2.29181 13.0434 2.70265C13.9977 3.10279 14.8537 3.6784 15.5897 4.41449C16.3237 5.14844 16.9014 6.0065 17.3016 6.96084C17.7167 7.94943 17.9243 8.99793 17.92 10.0807C17.9071 12.2119 17.0705 14.2083 15.5641 15.7019Z" fill="black"/>
</svg>
