<svg width="22" height="22" viewBox="0 0 22 22" fill="none" xmlns="http://www.w3.org/2000/svg">
<path d="M4.4632 17.443C5.44793 16.734 6.4929 16.1737 7.59812 15.762C8.70256 15.3496 9.89891 15.1434 11.1872 15.1434C12.4754 15.1434 13.6718 15.3496 14.7762 15.762C15.8806 16.1744 16.9256 16.7344 17.9111 17.4418C18.6757 16.6502 19.2909 15.7157 19.7566 14.6382C20.2223 13.5593 20.4552 12.3761 20.4552 11.0886C20.4552 8.52057 19.5527 6.3337 17.7478 4.52798C15.9428 2.72226 13.756 1.81978 11.1872 1.82055C8.61837 1.82133 6.4315 2.72419 4.62655 4.52914C2.8216 6.33409 1.91913 8.52057 1.91913 11.0886C1.91913 12.3761 2.15199 13.5593 2.6177 14.6382C3.08342 15.7164 3.69859 16.651 4.4632 17.4418M11.1883 11.6678C10.2121 11.6678 9.38839 11.3326 8.71723 10.6623C8.04607 9.99187 7.71088 9.16895 7.71165 8.19349C7.71242 7.21803 8.04762 6.39433 8.71723 5.7224C9.38685 5.05046 10.2102 4.71527 11.1872 4.71681C12.1642 4.71836 12.9875 5.05355 13.6571 5.7224C14.3267 6.39124 14.6619 7.21455 14.6627 8.19233C14.6634 9.17011 14.3283 9.99342 13.6571 10.6623C12.9859 11.3311 12.163 11.6663 11.1883 11.6678ZM11.1872 21.5151C9.73285 21.5151 8.37161 21.2444 7.10343 20.703C5.83526 20.1616 4.73159 19.4217 3.79243 18.4833C2.85327 17.5449 2.11337 16.4413 1.57273 15.1723C1.0321 13.9034 0.761394 12.5421 0.760622 11.0886C0.759849 9.63505 1.03055 8.27381 1.57273 7.00486C2.11491 5.73591 2.85481 4.63224 3.79243 3.69386C4.73159 2.75547 5.83526 2.01557 7.10343 1.47416C8.37161 0.932752 9.73285 0.662048 11.1872 0.662048C12.6415 0.662048 14.0027 0.932752 15.2709 1.47416C16.5391 2.01557 17.6427 2.75547 18.5819 3.69386C19.5211 4.63224 20.261 5.73591 20.8016 7.00486C21.3422 8.27381 21.6129 9.63505 21.6137 11.0886C21.6145 12.5421 21.3438 13.9034 20.8016 15.1723C20.2594 16.4413 19.5195 17.5449 18.5819 18.4833C17.6427 19.4217 16.5391 20.1616 15.2709 20.703C14.0027 21.2444 12.6415 21.5151 11.1872 21.5151ZM11.1872 20.3566C12.2553 20.3566 13.3061 20.1697 14.3395 19.7959C15.3728 19.4229 16.266 18.9116 17.0191 18.2621C16.2668 17.6573 15.396 17.1796 14.4066 16.829C13.4173 16.4783 12.3441 16.3026 11.1872 16.3019C10.0302 16.3011 8.95318 16.4729 7.95609 16.8174C6.95901 17.1619 6.09167 17.6434 5.35409 18.2621C6.10712 18.9108 7.00071 19.4221 8.03487 19.7959C9.06903 20.1697 10.1198 20.3566 11.1872 20.3566ZM11.1872 10.5093C11.8375 10.5093 12.3862 10.2857 12.8334 9.83856C13.2806 9.39138 13.5042 8.84264 13.5042 8.19233C13.5042 7.54202 13.2806 6.99328 12.8334 6.54609C12.3862 6.09891 11.8375 5.87532 11.1872 5.87532C10.5369 5.87532 9.98811 6.09891 9.54093 6.54609C9.09375 6.99328 8.87015 7.54202 8.87015 8.19233C8.87015 8.84264 9.09375 9.39138 9.54093 9.83856C9.98811 10.2857 10.5369 10.5093 11.1872 10.5093Z" fill="black"/>
</svg>
