<svg width="30" height="30" viewBox="0 0 30 30" fill="none" xmlns="http://www.w3.org/2000/svg">
<path d="M20.7217 20.8843C21.2807 20.8843 21.8167 21.1063 22.2119 21.5015C22.6072 21.8968 22.8292 22.4328 22.8292 22.9918C22.8292 23.5507 22.6072 24.0867 22.2119 24.482C21.8167 24.8772 21.2807 25.0992 20.7217 25.0992C20.1628 25.0992 19.6267 24.8772 19.2315 24.482C18.8363 24.0867 18.6142 23.5507 18.6142 22.9918C18.6142 22.4328 18.8363 21.8968 19.2315 21.5015C19.6267 21.1063 20.1628 20.8843 20.7217 20.8843ZM20.7217 21.938C20.4423 21.938 20.1742 22.049 19.9766 22.2466C19.779 22.4443 19.668 22.7123 19.668 22.9918C19.668 23.2712 19.779 23.5392 19.9766 23.7369C20.1742 23.9345 20.4423 24.0455 20.7217 24.0455C21.0012 24.0455 21.2692 23.9345 21.4668 23.7369C21.6644 23.5392 21.7755 23.2712 21.7755 22.9918C21.7755 22.7123 21.6644 22.4443 21.4668 22.2466C21.2692 22.049 21.0012 21.938 20.7217 21.938ZM11.238 20.8843C11.7969 20.8843 12.333 21.1063 12.7282 21.5015C13.1235 21.8968 13.3455 22.4328 13.3455 22.9918C13.3455 23.5507 13.1235 24.0867 12.7282 24.482C12.333 24.8772 11.7969 25.0992 11.238 25.0992C10.6791 25.0992 10.143 24.8772 9.74778 24.482C9.35255 24.0867 9.13051 23.5507 9.13051 22.9918C9.13051 22.4328 9.35255 21.8968 9.74778 21.5015C10.143 21.1063 10.6791 20.8843 11.238 20.8843ZM11.238 21.938C10.9585 21.938 10.6905 22.049 10.4929 22.2466C10.2953 22.4443 10.1843 22.7123 10.1843 22.9918C10.1843 23.2712 10.2953 23.5392 10.4929 23.7369C10.6905 23.9345 10.9585 24.0455 11.238 24.0455C11.5175 24.0455 11.7855 23.9345 11.9831 23.7369C12.1807 23.5392 12.2918 23.2712 12.2918 22.9918C12.2918 22.7123 12.1807 22.4443 11.9831 22.2466C11.7855 22.049 11.5175 21.938 11.238 21.938ZM22.8292 8.2393H8.36128L11.0483 14.5618H19.668C20.0157 14.5618 20.3213 14.3932 20.511 14.1403L23.6722 9.9253C23.8092 9.74616 23.883 9.52487 23.883 9.29305C23.883 9.01358 23.7719 8.74555 23.5743 8.54794C23.3767 8.35032 23.1087 8.2393 22.8292 8.2393ZM19.668 15.6155H11.101L10.2896 17.2594L10.1843 17.723C10.1843 18.0025 10.2953 18.2705 10.4929 18.4681C10.6905 18.6657 10.9585 18.7768 11.238 18.7768H22.8292V19.8305H11.238C10.6791 19.8305 10.143 19.6085 9.74778 19.2132C9.35255 18.818 9.13051 18.282 9.13051 17.723C9.1302 17.3655 9.22085 17.0137 9.39395 16.7009L10.1526 15.1519L6.32755 6.13181H4.91553V5.07806H7.02302L7.9187 7.18556H22.8292C23.3882 7.18556 23.9242 7.4076 24.3194 7.80283C24.7147 8.19806 24.9367 8.73411 24.9367 9.29305C24.9367 9.81992 24.7576 10.2625 24.4625 10.6208L21.3961 14.7198C21.0168 15.2573 20.3845 15.6155 19.668 15.6155Z" fill="black"/>
</svg>
