<svg width="30" height="30" viewBox="0 0 30 30" fill="none" xmlns="http://www.w3.org/2000/svg">
<path d="M20.2501 4.375C19.0001 3.125 17.3751 2.5 15.8751 2.5C14.3751 2.5 12.6251 3.125 11.5001 4.375L4.25012 11.375C1.75012 13.875 1.75012 17.75 4.25012 20.25C6.75012 22.75 10.6251 22.75 13.1251 20.25L20.2501 13.125C22.6251 10.75 22.6251 6.75 20.2501 4.375ZM18.5001 11.375L15.0001 14.875L10.5001 10.5L5.00012 16C5.00012 15 5.25012 13.875 6.12512 13.125L13.2501 6C13.8751 5.375 14.8751 5 15.7501 5C16.6251 5 17.6251 5.375 18.3751 6C19.8751 7.625 19.8751 9.875 18.5001 11.375ZM24.5001 8.875C24.5001 9.875 24.2501 10.75 24.0001 11.75C25.2501 13.25 25.2501 15.5 23.8751 16.875L20.3751 20.375L18.5001 18.5L15.0001 22C13.3751 23.625 11.1251 24.5 9.00012 24.5C9.25012 24.875 9.50012 25.25 9.87512 25.625C12.3751 28.125 16.2501 28.125 18.7501 25.625L25.8751 18.5C28.3751 16 28.3751 12.125 25.8751 9.625C25.2501 9.375 24.8751 9.125 24.5001 8.875Z" fill="black"/>
</svg>
