<svg width="29" height="28" viewBox="0 0 29 28" fill="none" xmlns="http://www.w3.org/2000/svg">
<path d="M6.84237 10.6734L6.30506 10.4259L6.30472 10.4267L6.84237 10.6734ZM8.99689 8.39942L8.61194 7.95023L8.61183 7.95032L8.99689 8.39942ZM10.18 7.38546L9.79527 6.93611L9.79509 6.93627L10.18 7.38546ZM19.4205 7.38428L19.8054 6.93508L19.8054 6.93503L19.4205 7.38428ZM20.6036 8.39824L20.9889 7.94933L20.9886 7.94905L20.6036 8.39824ZM22.757 10.6723L22.2193 10.919L22.2197 10.9198L22.757 10.6723ZM17.1666 23.539C17.1666 23.8658 17.4314 24.1306 17.7582 24.1306C18.0849 24.1306 18.3497 23.8658 18.3497 23.539H17.7582H17.1666ZM11.2508 23.539C11.2508 23.8658 11.5157 24.1306 11.8424 24.1306C12.1691 24.1306 12.434 23.8658 12.434 23.539H11.8424H11.2508ZM6.51819 13.7899H7.10977C7.10977 12.1291 7.12237 11.4816 7.38003 10.9202L6.84237 10.6734L6.30472 10.4267C5.91401 11.278 5.92661 12.2372 5.92661 13.7899H6.51819ZM6.84237 10.6734L7.37968 10.9209C7.63829 10.3595 8.12093 9.92975 9.38196 8.84852L8.99689 8.39942L8.61183 7.95032C7.43319 8.96091 6.69719 9.57466 6.30506 10.4259L6.84237 10.6734ZM8.99689 8.39942L9.38185 8.84861L10.565 7.83465L10.18 7.38546L9.79509 6.93627L8.61194 7.95023L8.99689 8.39942ZM10.18 7.38546L10.5648 7.8348C11.68 6.87988 12.4743 6.20008 13.1514 5.75235C13.8146 5.31381 14.3038 5.14102 14.8003 5.14102V4.54944V3.95786C13.9834 3.95786 13.2658 4.25833 12.4989 4.76543C11.7458 5.26333 10.8867 6.00154 9.79527 6.93611L10.18 7.38546ZM14.8003 4.54944V5.14102C15.2969 5.14102 15.7865 5.31369 16.4497 5.75188C17.1269 6.19924 17.9212 6.87873 19.0356 7.83352L19.4205 7.38428L19.8054 6.93503C18.7144 6.00032 17.8552 5.2624 17.1019 4.76471C16.3347 4.25786 15.6169 3.95786 14.8003 3.95786V4.54944ZM19.4205 7.38428L19.0355 7.83347L20.2187 8.84743L20.6036 8.39824L20.9886 7.94905L19.8054 6.93508L19.4205 7.38428ZM20.6036 8.39824L20.2184 8.84715C21.4789 9.92903 21.9619 10.3582 22.2193 10.919L22.757 10.6723L23.2946 10.4255C22.9037 9.57363 22.1657 8.95926 20.9889 7.94933L20.6036 8.39824ZM22.757 10.6723L22.2197 10.9198C22.4781 11.4808 22.4908 12.1278 22.4908 13.7887H23.0823H23.6739C23.6739 12.2361 23.6866 11.2764 23.2943 10.4248L22.757 10.6723ZM23.0823 13.7887H22.4908V18.8064H23.0823H23.6739V13.7887H23.0823ZM23.0823 18.8064H22.4908C22.4908 19.9389 22.4895 20.7284 22.4094 21.324C22.3316 21.9025 22.1892 22.2089 21.9707 22.4274L22.389 22.8457L22.8073 23.264C23.2821 22.7892 23.4865 22.1917 23.582 21.4817C23.6752 20.7889 23.6739 19.9054 23.6739 18.8064H23.0823ZM22.389 22.8457L21.9707 22.4274C21.7522 22.6459 21.4458 22.7883 20.8673 22.8661C20.2717 22.9462 19.4822 22.9475 18.3497 22.9475V23.5391V24.1306C19.4487 24.1306 20.3322 24.1319 21.025 24.0387C21.735 23.9432 22.3325 23.7388 22.8073 23.264L22.389 22.8457ZM18.3497 23.5391V22.9475H11.2508V23.5391V24.1306H18.3497V23.5391ZM11.2508 23.5391V22.9475C10.1183 22.9475 9.32886 22.9462 8.73324 22.8661C8.15476 22.7883 7.84834 22.6459 7.62982 22.4274L7.21152 22.8457L6.79321 23.264C7.26802 23.7388 7.86553 23.9432 8.5755 24.0387C9.26834 24.1319 10.1518 24.1306 11.2508 24.1306V23.5391ZM7.21152 22.8457L7.62982 22.4274C7.41131 22.2089 7.26897 21.9025 7.19115 21.324C7.11102 20.7284 7.10977 19.9389 7.10977 18.8064H6.51819H5.92661C5.92661 19.9054 5.92535 20.7889 6.01856 21.4817C6.11407 22.1917 6.3184 22.7892 6.79321 23.264L7.21152 22.8457ZM6.51819 18.8064H7.10977V13.7899H6.51819H5.92661V18.8064H6.51819ZM17.7582 23.539H18.3497V17.6233H17.7582H17.1666V23.539H17.7582ZM17.7582 17.6233H18.3497C18.3497 17.1526 18.1628 16.7012 17.8299 16.3684L17.4116 16.7867L16.9933 17.205C17.1043 17.3159 17.1666 17.4664 17.1666 17.6233H17.7582ZM17.4116 16.7867L17.8299 16.3684C17.4971 16.0355 17.0457 15.8486 16.575 15.8486V16.4401V17.0317C16.7319 17.0317 16.8824 17.094 16.9933 17.205L17.4116 16.7867ZM16.575 16.4401V15.8486H13.0255V16.4401V17.0317H16.575V16.4401ZM13.0255 16.4401V15.8486C12.5549 15.8486 12.1034 16.0355 11.7706 16.3684L12.1889 16.7867L12.6072 17.205C12.7182 17.094 12.8686 17.0317 13.0255 17.0317V16.4401ZM12.1889 16.7867L11.7706 16.3684C11.4378 16.7012 11.2508 17.1526 11.2508 17.6233H11.8424H12.434C12.434 17.4664 12.4963 17.3159 12.6072 17.205L12.1889 16.7867ZM11.8424 17.6233H11.2508V23.539H11.8424H12.434V17.6233H11.8424Z" fill="black"/>
</svg>
