<svg width="22" height="22" viewBox="0 0 22 22" fill="none" xmlns="http://www.w3.org/2000/svg">
<path fill-rule="evenodd" clip-rule="evenodd" d="M3.02183 0.392853H11.363C12.7335 0.392853 14.0479 0.937299 15.017 1.90642C15.9862 2.87554 16.5306 4.18995 16.5306 5.5605C16.5306 6.93104 15.9862 8.24545 15.017 9.21457C14.0479 10.1837 12.7335 10.7281 11.363 10.7281H10.3541L14.0847 14.2261L18.1453 10.1671C18.2532 10.0513 18.3833 9.95847 18.5278 9.89405C18.6724 9.82964 18.8285 9.795 18.9867 9.79221C19.145 9.78942 19.3022 9.81853 19.4489 9.8778C19.5957 9.93708 19.729 10.0253 19.8409 10.1372C19.9528 10.2491 20.041 10.3824 20.1003 10.5292C20.1596 10.676 20.1887 10.8331 20.1859 10.9914C20.1831 11.1496 20.1485 11.3057 20.0841 11.4503C20.0196 11.5948 19.9268 11.725 19.811 11.8329L15.8054 15.84L19.7843 19.569C20.0069 19.7841 20.136 20.0781 20.1437 20.3876C20.1513 20.6971 20.0369 20.9971 19.8251 21.2229C19.6134 21.4487 19.3212 21.5821 19.0119 21.5943C18.7026 21.6066 18.4009 21.4966 18.172 21.2881L14.1381 17.5057L10.3824 21.2614C10.159 21.4696 9.86349 21.5829 9.55816 21.5776C9.25282 21.5722 8.9615 21.4485 8.74557 21.2325C8.52964 21.0166 8.40595 20.7253 8.40056 20.42C8.39517 20.1146 8.50851 19.8191 8.71669 19.5957L12.4174 15.8934L6.90798 10.7281H4.2004V18.9781C4.2004 19.2907 4.07623 19.5905 3.85521 19.8115C3.63418 20.0325 3.33441 20.1567 3.02183 20.1567C2.70926 20.1567 2.40948 20.0325 2.18846 19.8115C1.96743 19.5905 1.84326 19.2907 1.84326 18.9781V1.57142C1.84326 1.25885 1.96743 0.959073 2.18846 0.738048C2.40948 0.517023 2.70926 0.392853 3.02183 0.392853ZM11.363 8.371H4.2004V2.75H11.363C12.1084 2.75 12.8232 3.0461 13.3503 3.57317C13.8774 4.10024 14.1735 4.8151 14.1735 5.5605C14.1735 6.30589 13.8774 7.02075 13.3503 7.54782C12.8232 8.07489 12.1084 8.371 11.363 8.371Z" fill="black"/>
</svg>
