<svg width="30" height="30" viewBox="0 0 30 30" fill="none" xmlns="http://www.w3.org/2000/svg">
<path d="M8.40192 21.443C9.38665 20.734 10.4316 20.1737 11.5368 19.762C12.6413 19.3496 13.8376 19.1434 15.1259 19.1434C16.4141 19.1434 17.6105 19.3496 18.7149 19.762C19.8194 20.1744 20.8643 20.7344 21.8498 21.4418C22.6145 20.6502 23.2296 19.7157 23.6953 18.6382C24.1611 17.5593 24.3939 16.3761 24.3939 15.0886C24.3939 12.5206 23.4914 10.3337 21.6865 8.52798C19.8815 6.72226 17.6947 5.81978 15.1259 5.82055C12.5571 5.82133 10.3702 6.72419 8.56527 8.52914C6.76032 10.3341 5.85785 12.5206 5.85785 15.0886C5.85785 16.3761 6.09071 17.5593 6.55643 18.6382C7.02214 19.7164 7.63731 20.651 8.40192 21.4418M15.127 15.6678C14.1508 15.6678 13.3271 15.3326 12.656 14.6623C11.9848 13.9919 11.6496 13.1689 11.6504 12.1935C11.6511 11.218 11.9863 10.3943 12.656 9.7224C13.3256 9.05046 14.1489 8.71527 15.1259 8.71681C16.1029 8.71836 16.9262 9.05355 17.5958 9.7224C18.2654 10.3912 18.6006 11.2146 18.6014 12.1923C18.6022 13.1701 18.267 13.9934 17.5958 14.6623C16.9247 15.3311 16.1017 15.6663 15.127 15.6678ZM15.1259 25.5151C13.6716 25.5151 12.3103 25.2444 11.0422 24.703C9.77398 24.1616 8.67031 23.4217 7.73115 22.4833C6.79199 21.5449 6.05209 20.4413 5.51145 19.1723C4.97082 17.9034 4.70011 16.5421 4.69934 15.0886C4.69857 13.6351 4.96927 12.2738 5.51145 11.0049C6.05363 9.73591 6.79353 8.63224 7.73115 7.69386C8.67031 6.75547 9.77398 6.01557 11.0422 5.47416C12.3103 4.93275 13.6716 4.66205 15.1259 4.66205C16.5802 4.66205 17.9414 4.93275 19.2096 5.47416C20.4778 6.01557 21.5815 6.75547 22.5206 7.69386C23.4598 8.63224 24.1997 9.73591 24.7403 11.0049C25.2809 12.2738 25.5517 13.6351 25.5524 15.0886C25.5532 16.5421 25.2825 17.9034 24.7403 19.1723C24.1981 20.4413 23.4582 21.5449 22.5206 22.4833C21.5815 23.4217 20.4778 24.1616 19.2096 24.703C17.9414 25.2444 16.5802 25.5151 15.1259 25.5151ZM15.1259 24.3566C16.194 24.3566 17.2448 24.1697 18.2782 23.7959C19.3116 23.4229 20.2048 22.9116 20.9578 22.2621C20.2055 21.6573 19.3347 21.1796 18.3454 20.829C17.356 20.4783 16.2828 20.3026 15.1259 20.3019C13.9689 20.3011 12.8919 20.4729 11.8948 20.8174C10.8977 21.1619 10.0304 21.6434 9.29281 22.2621C10.0458 22.9108 10.9394 23.4221 11.9736 23.7959C13.0078 24.1697 14.0585 24.3566 15.1259 24.3566ZM15.1259 14.5093C15.7762 14.5093 16.3249 14.2857 16.7721 13.8386C17.2193 13.3914 17.4429 12.8426 17.4429 12.1923C17.4429 11.542 17.2193 10.9933 16.7721 10.5461C16.3249 10.0989 15.7762 9.87532 15.1259 9.87532C14.4756 9.87532 13.9268 10.0989 13.4796 10.5461C13.0325 10.9933 12.8089 11.542 12.8089 12.1923C12.8089 12.8426 13.0325 13.3914 13.4796 13.8386C13.9268 14.2857 14.4756 14.5093 15.1259 14.5093Z" fill="black"/>
</svg>
