<svg width="29" height="31" viewBox="0 0 29 31" fill="none" xmlns="http://www.w3.org/2000/svg">
<path fill-rule="evenodd" clip-rule="evenodd" d="M10.6111 9.81994V8.76619C10.6111 7.64831 11.0552 6.57621 11.8456 5.78575C12.6361 4.99529 13.7082 4.55121 14.8261 4.55121C15.944 4.55121 17.0161 4.99529 17.8065 5.78575C18.597 6.57621 19.0411 7.64831 19.0411 8.76619V9.81994H22.2023C22.784 9.81994 23.2561 10.2931 23.2561 10.8811V23.5271C23.2561 24.6862 22.313 25.6261 21.1549 25.6261H8.49729C7.94039 25.6261 7.40627 25.4051 7.01228 25.0115C6.6183 24.6179 6.39668 24.084 6.39612 23.5271V10.8821C6.39612 10.2941 6.86504 9.81994 7.44986 9.81994H10.6111ZM11.8756 9.81994H17.7766V8.76619C17.7766 7.98368 17.4657 7.23321 16.9124 6.67988C16.3591 6.12656 15.6086 5.8157 14.8261 5.8157C14.0436 5.8157 13.2931 6.12656 12.7398 6.67988C12.1865 7.23321 11.8756 7.98368 11.8756 8.76619V9.81994ZM10.6111 11.0844H7.66061V23.5271C7.66061 23.9865 8.03575 24.3616 8.49729 24.3616H21.1549C21.3764 24.3616 21.5889 24.2738 21.7458 24.1173C21.9026 23.9609 21.991 23.7486 21.9916 23.5271V11.0844H19.0411V14.0349H17.7766V11.0844H11.8756V14.0349H10.6111V11.0844Z" fill="black"/>
</svg>
