<svg width="319" height="32" viewBox="0 0 319 32" fill="none" xmlns="http://www.w3.org/2000/svg">
<rect x="0.5" y="0.5" width="318" height="31" rx="2.5" stroke="black"/>
<path d="M143.743 22.19C142.73 22.19 141.957 21.905 141.425 21.335C140.893 20.7523 140.627 19.9227 140.627 18.846V11.854C140.627 10.7773 140.893 9.954 141.425 9.384C141.957 8.80133 142.73 8.51 143.743 8.51C144.756 8.51 145.529 8.80133 146.061 9.384C146.593 9.954 146.859 10.7773 146.859 11.854V12.994H144.883V11.721C144.883 10.847 144.522 10.41 143.8 10.41C143.078 10.41 142.717 10.847 142.717 11.721V18.998C142.717 19.8593 143.078 20.29 143.8 20.29C144.522 20.29 144.883 19.8593 144.883 18.998V16.395H143.838V14.495H146.859V18.846C146.859 19.9227 146.593 20.7523 146.061 21.335C145.529 21.905 144.756 22.19 143.743 22.19ZM150.462 22.19C149.436 22.19 148.651 21.8987 148.106 21.316C147.561 20.7333 147.289 19.91 147.289 18.846V11.854C147.289 10.79 147.561 9.96667 148.106 9.384C148.651 8.80133 149.436 8.51 150.462 8.51C151.488 8.51 152.273 8.80133 152.818 9.384C153.363 9.96667 153.635 10.79 153.635 11.854V18.846C153.635 19.91 153.363 20.7333 152.818 21.316C152.273 21.8987 151.488 22.19 150.462 22.19ZM150.462 20.29C151.184 20.29 151.545 19.853 151.545 18.979V11.721C151.545 10.847 151.184 10.41 150.462 10.41C149.74 10.41 149.379 10.847 149.379 11.721V18.979C149.379 19.853 149.74 20.29 150.462 20.29ZM157.309 22.19C156.283 22.19 155.498 21.8987 154.953 21.316C154.409 20.7333 154.136 19.91 154.136 18.846V11.854C154.136 10.79 154.409 9.96667 154.953 9.384C155.498 8.80133 156.283 8.51 157.309 8.51C158.335 8.51 159.121 8.80133 159.665 9.384C160.21 9.96667 160.482 10.79 160.482 11.854V18.846C160.482 19.91 160.21 20.7333 159.665 21.316C159.121 21.8987 158.335 22.19 157.309 22.19ZM157.309 20.29C158.031 20.29 158.392 19.853 158.392 18.979V11.721C158.392 10.847 158.031 10.41 157.309 10.41C156.587 10.41 156.226 10.847 156.226 11.721V18.979C156.226 19.853 156.587 20.29 157.309 20.29ZM164.1 22.19C163.086 22.19 162.314 21.905 161.782 21.335C161.25 20.7523 160.984 19.9227 160.984 18.846V11.854C160.984 10.7773 161.25 9.954 161.782 9.384C162.314 8.80133 163.086 8.51 164.1 8.51C165.113 8.51 165.886 8.80133 166.418 9.384C166.95 9.954 167.216 10.7773 167.216 11.854V12.994H165.24V11.721C165.24 10.847 164.879 10.41 164.157 10.41C163.435 10.41 163.074 10.847 163.074 11.721V18.998C163.074 19.8593 163.435 20.29 164.157 20.29C164.879 20.29 165.24 19.8593 165.24 18.998V16.395H164.195V14.495H167.216V18.846C167.216 19.9227 166.95 20.7523 166.418 21.335C165.886 21.905 165.113 22.19 164.1 22.19ZM167.798 8.7H169.888V20.1H173.327V22H167.798V8.7ZM173.569 8.7H179.269V10.6H175.659V14.115H178.528V16.015H175.659V20.1H179.269V22H173.569V8.7Z" fill="black"/>
</svg>
