<svg width="319" height="54" viewBox="0 0 319 54" fill="none" xmlns="http://www.w3.org/2000/svg">
<rect width="319" height="54" rx="10" fill="black"/>
<path d="M131.888 37.32C130.181 37.32 128.891 36.84 128.016 35.88C127.141 34.8987 126.704 33.5013 126.704 31.688V30.408H130.032V31.944C130.032 33.3947 130.64 34.12 131.856 34.12C132.453 34.12 132.901 33.9493 133.2 33.608C133.52 33.2453 133.68 32.6693 133.68 31.88C133.68 30.9413 133.467 30.12 133.04 29.416C132.613 28.6907 131.824 27.8267 130.672 26.824C129.221 25.544 128.208 24.392 127.632 23.368C127.056 22.3227 126.768 21.1493 126.768 19.848C126.768 18.0773 127.216 16.712 128.112 15.752C129.008 14.7707 130.309 14.28 132.016 14.28C133.701 14.28 134.971 14.7707 135.824 15.752C136.699 16.712 137.136 18.0987 137.136 19.912V20.84H133.808V19.688C133.808 18.92 133.659 18.3653 133.36 18.024C133.061 17.6613 132.624 17.48 132.048 17.48C130.875 17.48 130.288 18.1947 130.288 19.624C130.288 20.4347 130.501 21.192 130.928 21.896C131.376 22.6 132.176 23.4533 133.328 24.456C134.8 25.736 135.813 26.8987 136.368 27.944C136.923 28.9893 137.2 30.216 137.2 31.624C137.2 33.4587 136.741 34.8667 135.824 35.848C134.928 36.8293 133.616 37.32 131.888 37.32ZM137.938 14.6H141.458V37H137.938V14.6ZM147.807 37.32C146.1 37.32 144.799 36.84 143.903 35.88C143.007 34.8987 142.559 33.5013 142.559 31.688V19.912C142.559 18.0987 143.007 16.712 143.903 15.752C144.799 14.7707 146.1 14.28 147.807 14.28C149.513 14.28 150.815 14.7707 151.711 15.752C152.607 16.712 153.055 18.0987 153.055 19.912V21.832H149.727V19.688C149.727 18.216 149.119 17.48 147.903 17.48C146.687 17.48 146.079 18.216 146.079 19.688V31.944C146.079 33.3947 146.687 34.12 147.903 34.12C149.119 34.12 149.727 33.3947 149.727 31.944V27.56H147.967V24.36H153.055V31.688C153.055 33.5013 152.607 34.8987 151.711 35.88C150.815 36.84 149.513 37.32 147.807 37.32ZM154.034 14.6H158.451L161.875 28.008H161.939V14.6H165.075V37H161.458L157.234 20.648H157.171V37H154.034V14.6ZM175.376 37.32C173.669 37.32 172.368 36.84 171.472 35.88C170.576 34.8987 170.128 33.5013 170.128 31.688V14.6H173.648V31.944C173.648 32.712 173.797 33.2667 174.096 33.608C174.416 33.9493 174.864 34.12 175.44 34.12C176.016 34.12 176.453 33.9493 176.752 33.608C177.072 33.2667 177.232 32.712 177.232 31.944V14.6H180.624V31.688C180.624 33.5013 180.176 34.8987 179.28 35.88C178.384 36.84 177.082 37.32 175.376 37.32ZM181.851 14.6H187.035C188.784 14.6 190.096 15.0693 190.971 16.008C191.845 16.9467 192.283 18.3227 192.283 20.136V22.344C192.283 24.1573 191.845 25.5333 190.971 26.472C190.096 27.4107 188.784 27.88 187.035 27.88H185.371V37H181.851V14.6ZM187.035 24.68C187.611 24.68 188.037 24.52 188.315 24.2C188.613 23.88 188.763 23.336 188.763 22.568V19.912C188.763 19.144 188.613 18.6 188.315 18.28C188.037 17.96 187.611 17.8 187.035 17.8H185.371V24.68H187.035Z" fill="white"/>
</svg>
