<svg width="319" height="32" viewBox="0 0 319 32" fill="none" xmlns="http://www.w3.org/2000/svg">
<rect x="0.5" y="0.5" width="318" height="31" rx="2.5" stroke="black"/>
<path d="M145.394 8.7H148.225L150.391 22H148.301L147.921 19.359V19.397H145.546L145.166 22H143.228L145.394 8.7ZM147.674 17.592L146.743 11.018H146.705L145.793 17.592H147.674ZM150.645 8.7H153.723C154.762 8.7 155.541 8.97867 156.06 9.536C156.579 10.0933 156.839 10.9103 156.839 11.987V13.298C156.839 14.3747 156.579 15.1917 156.06 15.749C155.541 16.3063 154.762 16.585 153.723 16.585H152.735V22H150.645V8.7ZM153.723 14.685C154.065 14.685 154.318 14.59 154.483 14.4C154.66 14.21 154.749 13.887 154.749 13.431V11.854C154.749 11.398 154.66 11.075 154.483 10.885C154.318 10.695 154.065 10.6 153.723 10.6H152.735V14.685H153.723ZM157.214 8.7H160.292C161.331 8.7 162.11 8.97867 162.629 9.536C163.148 10.0933 163.408 10.9103 163.408 11.987V13.298C163.408 14.3747 163.148 15.1917 162.629 15.749C162.11 16.3063 161.331 16.585 160.292 16.585H159.304V22H157.214V8.7ZM160.292 14.685C160.634 14.685 160.887 14.59 161.052 14.4C161.229 14.21 161.318 13.887 161.318 13.431V11.854C161.318 11.398 161.229 11.075 161.052 10.885C160.887 10.695 160.634 10.6 160.292 10.6H159.304V14.685H160.292ZM163.783 8.7H165.873V20.1H169.312V22H163.783V8.7ZM169.554 8.7H175.254V10.6H171.644V14.115H174.513V16.015H171.644V20.1H175.254V22H169.554V8.7Z" fill="black"/>
</svg>
