<svg width="319" height="46" viewBox="0 0 319 46" fill="none" xmlns="http://www.w3.org/2000/svg">
<rect x="0.5" y="0.5" width="318" height="45" rx="9.5" stroke="black"/>
<path d="M134.888 33.32C133.181 33.32 131.891 32.84 131.016 31.88C130.141 30.8987 129.704 29.5013 129.704 27.688V26.408H133.032V27.944C133.032 29.3947 133.64 30.12 134.856 30.12C135.453 30.12 135.901 29.9493 136.2 29.608C136.52 29.2453 136.68 28.6693 136.68 27.88C136.68 26.9413 136.467 26.12 136.04 25.416C135.613 24.6907 134.824 23.8267 133.672 22.824C132.221 21.544 131.208 20.392 130.632 19.368C130.056 18.3227 129.768 17.1493 129.768 15.848C129.768 14.0773 130.216 12.712 131.112 11.752C132.008 10.7707 133.309 10.28 135.016 10.28C136.701 10.28 137.971 10.7707 138.824 11.752C139.699 12.712 140.136 14.0987 140.136 15.912V16.84H136.808V15.688C136.808 14.92 136.659 14.3653 136.36 14.024C136.061 13.6613 135.624 13.48 135.048 13.48C133.875 13.48 133.288 14.1947 133.288 15.624C133.288 16.4347 133.501 17.192 133.928 17.896C134.376 18.6 135.176 19.4533 136.328 20.456C137.8 21.736 138.813 22.8987 139.368 23.944C139.923 24.9893 140.2 26.216 140.2 27.624C140.2 29.4587 139.741 30.8667 138.824 31.848C137.928 32.8293 136.616 33.32 134.888 33.32ZM140.938 10.6H144.458V33H140.938V10.6ZM150.807 33.32C149.1 33.32 147.799 32.84 146.903 31.88C146.007 30.8987 145.559 29.5013 145.559 27.688V15.912C145.559 14.0987 146.007 12.712 146.903 11.752C147.799 10.7707 149.1 10.28 150.807 10.28C152.513 10.28 153.815 10.7707 154.711 11.752C155.607 12.712 156.055 14.0987 156.055 15.912V17.832H152.727V15.688C152.727 14.216 152.119 13.48 150.903 13.48C149.687 13.48 149.079 14.216 149.079 15.688V27.944C149.079 29.3947 149.687 30.12 150.903 30.12C152.119 30.12 152.727 29.3947 152.727 27.944V23.56H150.967V20.36H156.055V27.688C156.055 29.5013 155.607 30.8987 154.711 31.88C153.815 32.84 152.513 33.32 150.807 33.32ZM157.034 10.6H161.451L164.875 24.008H164.939V10.6H168.075V33H164.458L160.234 16.648H160.171V33H157.034V10.6ZM173.256 10.6H176.776V33H173.256V10.6ZM178.132 10.6H182.548L185.972 24.008H186.036V10.6H189.172V33H185.556L181.332 16.648H181.268V33H178.132V10.6Z" fill="black"/>
</svg>
