<svg width="32" height="32" viewBox="0 0 32 32" fill="none" xmlns="http://www.w3.org/2000/svg">
<path d="M12.6666 21C12.6666 23.2093 14.3333 24 16 24C17.6666 24 19.3333 23.2093 19.3333 21C19.3333 18.7907 16 16 16 16C16 16 12.6666 18.7907 12.6666 21ZM12.0906 2.66666H19.9093C21.136 2.66666 21.752 2.66666 22.1333 3.05732C22.844 3.78532 22.844 6.88132 22.1333 7.60932C21.7506 7.99999 21.1373 7.99999 19.9093 7.99999H12.0906C10.864 7.99999 10.2493 7.99999 9.86662 7.60932C9.15595 6.88132 9.15595 3.78532 9.86662 3.05732C10.248 2.66666 10.8626 2.66666 12.0906 2.66666Z" stroke="black" stroke-width="2" stroke-linecap="round" stroke-linejoin="round"/>
<path d="M10.6667 8C10.8177 8.28432 10.9538 8.57627 11.0747 8.87467C11.2759 9.42741 11.3528 10.0177 11.2998 10.6036C11.2468 11.1894 11.0652 11.7564 10.768 12.264C10.5959 12.5356 10.4099 12.7982 10.2107 13.0507L9.67333 13.7693C9.07333 14.5693 8.77333 14.9693 8.556 15.408C8.33632 15.8508 8.17926 16.322 8.08933 16.808C8 17.2867 8 17.7867 8 18.7893V21.3333C8 25.104 8 26.9907 9.172 28.1613C10.3427 29.3333 12.2293 29.3333 16 29.3333C19.7707 29.3333 21.6573 29.3333 22.828 28.1613C24 26.9907 24 25.104 24 21.3333V18.7893C24 17.7893 24 17.288 23.9107 16.8067C23.8207 16.3206 23.6637 15.8495 23.444 15.4067C23.2267 14.9693 22.9267 14.5693 22.3267 13.7693L21.7893 13.052C21.5897 12.7996 21.4032 12.537 21.2307 12.2653C20.9333 11.7575 20.7516 11.1903 20.6986 10.6043C20.6456 10.0182 20.7226 9.4276 20.924 8.87467C21.004 8.66 21.1133 8.44 21.3333 8" stroke="black" stroke-width="2" stroke-linecap="round" stroke-linejoin="round"/>
</svg>
