<svg width="29" height="29" viewBox="0 0 29 29" fill="none" xmlns="http://www.w3.org/2000/svg">
<path d="M8.46804 7.58833C7.72008 8.5985 7.25004 10.0098 7.25004 11.4997C7.25004 12.0447 7.34308 12.65 7.46754 13.2119H5.00254C4.89537 12.6473 4.83876 12.0743 4.83337 11.4997C4.83337 9.53133 5.44721 7.60888 6.52504 6.15042C7.6065 4.68833 9.21962 3.625 11.1771 3.625C11.9287 3.625 12.6271 3.89083 13.2047 4.205C13.7907 4.52279 14.3333 4.93725 14.7937 5.34083C15.132 5.63688 15.4425 5.94137 15.7084 6.21929C15.9742 5.94137 16.2835 5.63688 16.6231 5.33963C17.0835 4.93725 17.626 4.52279 18.212 4.20379C18.7896 3.89083 19.488 3.625 20.2396 3.625C22.1971 3.625 23.8102 4.68833 24.8917 6.15042C25.9695 7.60888 26.5834 9.53133 26.5834 11.4997C26.5834 13.578 26.0251 15.1948 25.6409 15.9053C24.3528 18.8778 21.9796 21.2087 20.0052 22.7674C19.1708 23.4246 18.2993 24.0334 17.3952 24.5908C17.0314 24.8133 16.6615 25.0257 16.286 25.2276L16.2678 25.2372L16.2618 25.2409H16.2594L15.7084 25.5236L15.1574 25.2421L15.155 25.2409L15.1489 25.2372L15.1308 25.2276C15.0315 25.1764 14.9332 25.1232 14.836 25.0681C14.5612 24.9146 14.2897 24.7555 14.0215 24.5908C13.1174 24.033 12.246 23.4238 11.4115 22.7662C9.93012 21.5965 8.22154 19.9919 6.91775 18.0054H9.9265C10.8203 19.0596 11.82 20.0192 12.9099 20.8691C13.7989 21.5696 14.7338 22.2099 15.7084 22.7855C15.8316 22.713 15.9722 22.6285 16.1301 22.5318C16.7463 22.1548 17.5922 21.5941 18.5069 20.8715C20.3592 19.4095 22.3905 17.3613 23.4429 14.8988L23.4707 14.8347L23.5057 14.7743C23.6677 14.4891 24.1667 13.2542 24.1667 11.5009C24.1667 10.011 23.6955 8.60092 22.9487 7.58954C22.2044 6.58179 21.251 6.04167 20.2396 6.04167C20.0451 6.04167 19.7539 6.11658 19.3672 6.32683C18.9902 6.53225 18.5951 6.82587 18.2145 7.15817C17.6673 7.64522 17.1613 8.17669 16.7016 8.74713C16.5828 8.89662 16.4318 9.01736 16.2598 9.10036C16.0878 9.18335 15.8993 9.22646 15.7084 9.22646C15.5174 9.22646 15.3289 9.18335 15.1569 9.10036C14.985 9.01736 14.8339 8.89662 14.7151 8.74713C14.2555 8.17669 13.7495 7.64522 13.2023 7.15817C12.8489 6.84065 12.4624 6.56194 12.0495 6.32683C11.6629 6.11658 11.3729 6.04167 11.1771 6.04167C10.1657 6.04167 9.21237 6.58179 8.46804 7.58833Z" fill="black"/>
<path d="M5.28038 14.4202H9.58688L12.3008 9.96875L14.1652 14.5544L15.0618 13.2312H19.3333V15.6093H16.3547L13.6263 19.6354L11.8658 15.3035L10.9547 16.7983H2.41663V14.4202H5.28038Z" fill="black"/>
</svg>
