<svg width="32" height="32" viewBox="0 0 32 32" fill="none" xmlns="http://www.w3.org/2000/svg">
<path d="M14.6666 2.66666C17.2569 2.66626 19.7588 3.6084 21.7053 5.31724C23.6519 7.02608 24.9102 9.38485 25.2453 11.9533L28.2453 16.672C28.4426 16.9827 28.4026 17.4453 27.9453 17.6427L25.3333 18.76V22.6667C25.3333 23.3739 25.0524 24.0522 24.5523 24.5523C24.0522 25.0524 23.3739 25.3333 22.6666 25.3333H20.0013L20 29.3333H7.99998V24.408C7.99998 22.8347 7.41864 21.3453 6.33998 20.0013C5.08358 18.4326 4.29595 16.5408 4.06783 14.544C3.83972 12.5471 4.1804 10.5265 5.05063 8.71481C5.92086 6.90314 7.28522 5.3742 8.98652 4.30414C10.6878 3.23408 12.6568 2.66645 14.6666 2.66666ZM14.6666 5.33332C13.1594 5.33326 11.6828 5.75898 10.407 6.56145C9.13115 7.36392 8.10796 8.51049 7.45528 9.86907C6.8026 11.2277 6.547 12.743 6.71791 14.2405C6.88882 15.738 7.4793 17.1567 8.42131 18.3333C9.87998 20.152 10.6666 22.2227 10.6666 24.408V26.6667H17.3333L17.336 22.6667H22.6666V17.0027L24.7333 16.1173L22.676 12.884L22.6 12.2947C22.3478 10.3691 21.4039 8.60097 19.9442 7.3201C18.4844 6.03923 16.6087 5.33307 14.6666 5.33332ZM14.6666 9.33332C15.0203 9.33332 15.3594 9.4738 15.6095 9.72385C15.8595 9.9739 16 10.313 16 10.6667V12H17.3333C17.6869 12 18.0261 12.1405 18.2761 12.3905C18.5262 12.6406 18.6666 12.9797 18.6666 13.3333C18.6666 13.6869 18.5262 14.0261 18.2761 14.2761C18.0261 14.5262 17.6869 14.6667 17.3333 14.6667H16V16C16 16.3536 15.8595 16.6927 15.6095 16.9428C15.3594 17.1928 15.0203 17.3333 14.6666 17.3333C14.313 17.3333 13.9739 17.1928 13.7238 16.9428C13.4738 16.6927 13.3333 16.3536 13.3333 16V14.6653L12 14.6667C11.6464 14.6667 11.3072 14.5262 11.0572 14.2761C10.8071 14.0261 10.6666 13.6869 10.6666 13.3333C10.6666 12.9797 10.8071 12.6406 11.0572 12.3905C11.3072 12.1405 11.6464 12 12 12L13.3333 11.9987V10.6667C13.3333 10.313 13.4738 9.9739 13.7238 9.72385C13.9739 9.4738 14.313 9.33332 14.6666 9.33332Z" fill="black"/>
</svg>
